# xmcd
#
# Track frame offsets:
# 150
# 10079
# 24894
# 35072
# 48619
# 64274
# 79140
# 89257
# 99685
# 115960
# 126590
# 139728
# 149649
# 163061
# 175223
# 187442
# 203670
# 217590
# 230871
# 250008
# 264772
# 280727
#
# Disc length: 3957 seconds
#
# Revision: 0
# Processed by: cddbd v1.5.1PL0 Copyright (c) Steve Scherf et al.
# Submitted via: Audion 3.0.2 (http://www.panic.com/audion/)
#
DISCID=460f7316
DTITLE=Ray Charles - Ray Charles
DYEAR=1900
DGENRE=
TTITLE0=Blue Moon of Kentucky
TTITLE1=Born to lose
TTITLE2=Bye bye love
TTITLE3=Crying time
TTITLE4=Half as much
TTITLE5=Hang your head in shame
TTITLE6=Hey good lookin
TTITLE7=I don't care
TTITLE8=I love you so much it hurts
TTITLE9=I'll never stand in your way
TTITLE10=Making believe
TTITLE11=Oh lonesome me
TTITLE12=Take these chains
TTITLE13=Together again
TTITLE14=Someday
TTITLE15=Sweet memories
TTITLE16=Teardrops in my heart
TTITLE17=Worried mind
TTITLE18=You are my sunshine
TTITLE19=You don't know me
TTITLE20=You win again
TTITLE21=Your cheating heart
EXTD=
EXTT0=
EXTT1=
EXTT2=
EXTT3=
EXTT4=
EXTT5=
EXTT6=
EXTT7=
EXTT8=
EXTT9=
EXTT10=
EXTT11=
EXTT12=
EXTT13=
EXTT14=
EXTT15=
EXTT16=
EXTT17=
EXTT18=
EXTT19=
EXTT20=
EXTT21=
PLAYORDER=
